<?xml version="1.0" standalone="no"?>
<!DOCTYPE svg PUBLIC "-//W3C//DTD SVG 20010904//EN"
 "http://www.w3.org/TR/2001/REC-SVG-20010904/DTD/svg10.dtd">
<svg version="1.0" xmlns="http://www.w3.org/2000/svg"
 width="225.000000pt" height="225.000000pt" viewBox="0 0 225.000000 225.000000"
 preserveAspectRatio="xMidYMid meet">

<g transform="translate(0.000000,225.000000) scale(0.100000,-0.100000)"
fill="#000000" stroke="none">
<path d="M562 1687 l-562 -562 563 -563 562 -562 563 563 562 562 -563 563
-562 562 -563 -563z m1086 -1084 l-523 -523 -522 522 -523 523 522 522 523
523 522 -522 523 -523 -522 -522z"/>
<path d="M617 1632 c-273 -273 -497 -502 -497 -507 0 -6 225 -235 500 -510
l500 -500 505 505 505 505 -500 500 c-275 275 -503 501 -508 503 -4 1 -231
-222 -505 -496z m996 -20 l487 -487 -489 -489 -489 -489 -316 319 c-174 175
-394 396 -487 490 l-171 171 483 487 c265 267 485 486 488 486 3 0 225 -219
494 -488z"/>
<path d="M993 1776 c-99 -25 -183 -74 -264 -155 -87 -87 -131 -167 -156 -284
-15 -70 -13 -187 3 -246 l7 -24 -154 6 -154 7 132 -52 132 -52 87 -132 c68
-103 92 -133 113 -137 14 -3 194 -29 400 -57 l373 -53 101 102 102 101 -103 0
-103 0 46 57 c92 112 135 230 135 368 0 242 -140 444 -368 532 -81 31 -244 41
-329 19z m249 -17 c151 -31 305 -151 371 -290 45 -94 61 -178 55 -282 -7 -103
-35 -183 -95 -270 -65 -97 -95 -117 -171 -117 l-61 0 11 32 c6 17 37 57 68 87
261 256 106 693 -258 727 -217 20 -415 -135 -454 -356 -20 -113 20 -253 95
-336 27 -31 36 -50 41 -96 l7 -58 -34 0 c-28 0 -43 9 -84 53 -27 29 -55 63
-62 76 -11 20 -11 22 6 18 47 -14 85 -18 82 -10 -2 5 -15 34 -28 66 l-25 57
-47 0 c-26 0 -50 4 -54 10 -3 5 -11 45 -17 88 -23 156 32 318 148 442 70 73
162 129 255 154 65 18 179 20 251 5z m-17 -144 c123 -32 212 -106 269 -225 28
-59 31 -74 31 -165 0 -91 -3 -106 -31 -166 -28 -59 -101 -155 -110 -146 -2 2
12 50 31 107 19 57 35 105 35 107 0 2 -9 3 -20 3 -17 0 -19 4 -14 28 4 15 3
23 -2 19 -5 -5 -9 -12 -9 -15 0 -4 -29 -97 -64 -208 l-64 -201 -46 14 c-30 9
-74 13 -126 10 -78 -4 -79 -3 -45 11 34 14 154 13 190 -2 12 -5 25 31 69 184
29 104 56 190 60 190 3 0 6 14 7 30 1 17 -4 30 -10 30 -46 0 -197 -25 -271
-45 -49 -14 -105 -25 -124 -25 -33 0 -34 1 -15 15 17 13 16 14 -16 5 -46 -13
-93 -13 -107 1 -19 19 -35 0 -29 -34 3 -18 3 -26 0 -19 -5 10 -9 10 -20 1 -17
-14 -9 -29 17 -29 16 0 19 -7 19 -54 0 -30 3 -63 7 -73 14 -40 -39 22 -68 78
-99 197 -25 434 170 538 98 52 182 63 286 36z m140 -427 c-3 -7 -27 -96 -54
-197 -28 -101 -52 -186 -55 -188 -2 -2 -23 1 -47 7 -58 16 -118 5 -195 -35
l-64 -34 0 197 0 197 41 2 c23 2 74 12 114 23 126 35 268 50 260 28z m5 -270
c-39 -111 -70 -203 -70 -205 0 -1 -21 7 -47 18 -27 11 -75 24 -108 29 l-60 7
51 2 c28 0 72 -5 98 -13 56 -17 42 -40 118 199 42 132 56 165 70 165 15 0 8
-28 -52 -202z m-780 100 c0 -15 -32 -22 -40 -8 -11 18 11 41 28 28 6 -6 12
-15 12 -20z m991 -323 l-77 -75 -284 40 c-155 22 -294 40 -307 40 -14 0 -21 4
-18 10 3 6 16 10 29 10 12 0 27 5 34 12 16 16 198 23 232 9 24 -9 24 -10 3
-10 -12 -1 -25 -5 -28 -11 -4 -6 18 -11 57 -12 l63 -2 -80 -6 -80 -6 91 -2
c79 -2 93 0 100 16 4 9 6 20 6 25 -1 4 6 7 16 8 10 0 12 3 5 6 -41 16 5 23
151 23 l164 0 -77 -75z"/>
<path d="M1063 1733 c-18 -7 -16 -50 2 -57 8 -3 22 -3 30 1 17 6 15 25 -3 31
-8 2 -10 -3 -5 -14 4 -12 2 -15 -8 -12 -21 7 -18 43 3 42 10 -1 15 2 12 7 -6
10 -12 10 -31 2z"/>
<path d="M1149 1712 c-4 -22 -2 -29 5 -22 15 15 26 12 27 -7 0 -10 5 -5 10 11
4 17 6 32 4 35 -3 2 -5 -1 -5 -7 0 -19 -28 -14 -32 6 -3 10 -6 3 -9 -16z"/>
<path d="M980 1704 c0 -11 5 -26 11 -34 9 -13 10 -13 6 2 -3 9 -1 18 5 20 6 2
3 9 -6 17 -14 12 -16 11 -16 -5z"/>
<path d="M1018 1703 c-3 -13 -2 -26 4 -29 14 -9 16 -2 8 26 -6 25 -6 25 -12 3z"/>
<path d="M1217 1713 c-13 -12 -7 -41 10 -47 9 -4 23 0 31 8 16 16 10 46 -10
46 -10 0 -9 -3 1 -9 17 -11 7 -45 -12 -38 -6 2 -12 14 -11 26 1 23 0 24 -9 14z"/>
<path d="M956 1683 c7 -38 -7 -43 -30 -10 -16 22 -16 22 -4 -5 12 -29 35 -37
44 -15 2 7 0 24 -6 38 -9 22 -10 21 -4 -8z"/>
<path d="M1284 1685 c-9 -23 3 -45 23 -44 17 1 17 2 1 6 -10 2 -18 14 -18 25
0 15 5 19 20 15 11 -3 20 -1 20 4 0 15 -40 10 -46 -6z"/>
<path d="M863 1664 c-14 -6 3 -54 19 -54 5 0 6 5 2 12 -5 8 0 9 14 6 12 -4 22
-2 22 3 0 5 -4 9 -10 9 -5 0 -10 7 -10 15 0 15 -14 18 -37 9z m27 -14 c0 -5
-4 -10 -10 -10 -5 0 -10 5 -10 10 0 6 5 10 10 10 6 0 10 -4 10 -10z"/>
<path d="M1366 1646 c-19 -30 -20 -40 -3 -29 6 4 20 6 30 5 20 -4 23 21 3 37
-10 9 -17 6 -30 -13z m34 -6 c0 -5 -4 -10 -10 -10 -5 0 -10 5 -10 10 0 6 5 10
10 10 6 0 10 -4 10 -10z"/>
<path d="M809 1623 c-7 -10 -9 -15 -4 -10 4 4 17 -1 28 -10 19 -18 20 -17 7 7
-7 14 -14 26 -15 28 -1 1 -8 -6 -16 -15z"/>
<path d="M1423 1618 c-6 -7 -14 -20 -18 -28 -8 -13 -6 -13 7 -2 18 15 34 0 22
-20 -4 -7 2 -4 14 6 12 11 22 24 22 30 0 6 -4 5 -9 -3 -11 -17 -32 -5 -24 14
6 18 -1 19 -14 3z"/>
<path d="M744 1565 c-9 -23 3 -45 26 -45 25 0 37 27 20 43 -10 9 -11 7 -5 -10
5 -19 2 -23 -14 -23 -23 0 -28 19 -9 38 9 9 9 12 0 12 -7 0 -15 -7 -18 -15z"/>
<path d="M1466 1565 c-17 -17 -12 -40 9 -49 14 -5 45 18 45 33 0 4 -5 12 -12
19 -16 16 -23 15 -42 -3z m39 -5 c4 -6 1 -17 -5 -26 -10 -11 -16 -12 -26 -3
-11 9 -11 15 -3 25 14 17 25 18 34 4z"/>
<path d="M719 1517 c12 -15 11 -17 -8 -17 -11 0 -21 -3 -21 -8 0 -10 41 -35
48 -28 3 3 0 6 -6 6 -21 0 -12 19 10 22 21 3 21 4 -7 22 -24 16 -27 16 -16 3z"/>
<path d="M1550 1498 c0 -9 -9 -20 -21 -23 -11 -4 -18 -9 -16 -12 3 -2 17 1 31
9 19 10 23 17 16 28 -8 13 -10 13 -10 -2z"/>
<path d="M672 1454 c-19 -21 -11 -48 16 -52 30 -5 40 24 16 48 -17 16 -21 17
-32 4z m38 -30 c0 -8 -9 -14 -20 -14 -19 0 -27 19 -14 33 10 9 34 -4 34 -19z"/>
<path d="M1544 1435 c-14 -11 -15 -14 -3 -9 22 7 36 -15 18 -27 -8 -5 -9 -9
-3 -9 5 0 19 7 30 16 10 8 14 13 7 10 -17 -9 -28 15 -12 25 11 7 11 9 -2 9 -8
0 -24 -7 -35 -15z"/>
<path d="M1574 1376 c-24 -18 -11 -48 18 -44 14 2 24 11 26 24 4 26 -20 37
-44 20z m36 -22 c0 -8 -9 -14 -20 -14 -22 0 -28 26 -7 33 16 6 27 -1 27 -19z"/>
<path d="M658 1368 c30 -15 28 -32 -3 -26 -14 3 -25 1 -25 -3 0 -5 9 -9 20 -9
11 0 23 0 28 -1 4 0 9 8 10 17 4 18 -14 34 -38 33 -9 0 -6 -5 8 -11z"/>
<path d="M1595 1310 l-30 -6 28 -6 c15 -3 30 -1 33 4 9 13 3 15 -31 8z"/>
<path d="M620 1285 c0 -22 4 -25 33 -24 18 1 24 3 14 6 -17 4 -17 6 -3 21 13
15 12 17 -15 19 -25 2 -29 -1 -29 -22z m30 6 c0 -6 -4 -13 -10 -16 -5 -3 -10
1 -10 9 0 9 5 16 10 16 6 0 10 -4 10 -9z"/>
<path d="M1587 1283 c-11 -11 -8 -23 6 -23 8 0 14 7 14 15 0 16 -9 19 -20 8z"/>
<path d="M1593 1243 c-19 -7 -16 -53 2 -53 8 0 15 5 15 11 0 5 -5 7 -11 3 -7
-4 -10 1 -7 12 5 27 33 24 32 -3 0 -12 3 -20 8 -17 14 9 9 42 -8 48 -9 3 -16
6 -17 5 -1 0 -8 -3 -14 -6z"/>
<path d="M617 1223 c-4 -3 -7 -11 -7 -17 0 -7 3 -7 8 1 4 6 21 13 37 16 l30 4
-31 2 c-17 0 -34 -2 -37 -6z"/>
<path d="M1307 1434 c3 -9 -2 -14 -15 -14 -11 0 -23 -6 -25 -12 -4 -10 -6 -10
-6 0 -1 6 -14 12 -30 12 -25 0 -28 -3 -23 -25 3 -19 0 -25 -13 -25 -13 0 -16
6 -13 25 4 17 1 25 -8 25 -18 0 -18 -44 0 -59 20 -17 46 -2 46 26 0 22 2 24
15 13 8 -7 14 -20 13 -28 -2 -9 5 -18 15 -20 15 -3 18 0 13 16 -4 11 0 24 9
32 13 11 15 8 15 -19 0 -30 2 -31 40 -29 33 1 40 5 41 22 0 21 0 21 16 -1 22
-33 33 -28 33 12 0 34 -13 47 -23 23 -4 -10 -6 -10 -6 0 -1 6 -9 12 -20 12
-14 0 -17 -6 -14 -24 4 -19 1 -23 -19 -23 -17 0 -24 5 -24 18 0 12 5 18 13 15
7 -3 13 -2 13 2 0 13 -15 28 -32 35 -12 4 -15 2 -11 -9z"/>
<path d="M998 1433 c7 -3 16 -2 19 1 4 3 -2 6 -13 5 -11 0 -14 -3 -6 -6z"/>
<path d="M905 1413 c-19 -18 -19 -28 1 -47 19 -20 29 -20 46 -2 11 11 16 11
34 -1 30 -19 56 -7 52 26 -2 20 -9 27 -31 29 -18 2 -29 -2 -33 -12 -3 -9 -15
-16 -26 -16 -10 0 -16 -4 -13 -10 3 -5 1 -10 -4 -10 -6 0 -11 10 -11 21 0 16
5 20 20 16 11 -3 20 -2 20 3 0 15 -41 18 -55 3z m115 -23 c0 -11 -4 -20 -9
-20 -14 0 -23 18 -16 30 10 17 25 11 25 -10z"/>
<path d="M1094 1416 c-29 -22 -9 -70 31 -74 21 -2 26 0 16 6 -9 7 -10 12 -2
16 17 11 13 44 -8 55 -13 7 -24 6 -37 -3z m36 -26 c0 -11 -7 -20 -15 -20 -8 0
-15 9 -15 20 0 11 7 20 15 20 8 0 15 -9 15 -20z"/>
<path d="M818 1385 c2 -19 8 -35 14 -35 5 0 7 10 3 23 l-6 22 17 -22 c23 -32
31 -29 36 12 3 24 0 35 -9 35 -7 0 -10 -7 -7 -17 5 -17 5 -17 -6 0 -6 9 -19
17 -28 17 -15 0 -17 -7 -14 -35z"/>
<path d="M1011 1282 c-1 -29 23 -25 26 4 3 18 2 18 -6 -1 l-8 -20 -5 20 c-5
18 -6 17 -7 -3z"/>
<path d="M1055 1290 c-4 -7 -2 -16 6 -21 18 -11 23 -4 11 17 -7 12 -11 13 -17
4z"/>
<path d="M1101 1279 c0 -13 3 -18 6 -10 5 11 7 11 14 0 5 -8 9 -9 9 -3 0 6 -7
17 -15 24 -13 10 -15 9 -14 -11z"/>
<path d="M1146 1284 c-8 -21 -4 -25 14 -14 11 7 12 12 4 20 -8 8 -13 7 -18 -6z"/>
<path d="M1181 1279 c0 -13 3 -18 6 -10 5 11 7 11 14 0 5 -8 9 -9 9 -3 0 6 -7
17 -15 24 -13 10 -15 9 -14 -11z"/>
<path d="M1224 1289 c-11 -18 14 -35 29 -20 10 10 9 11 -5 6 -20 -8 -25 10 -5
18 9 4 9 6 0 6 -6 1 -15 -4 -19 -10z"/>
<path d="M870 1275 c-10 -12 -10 -21 -1 -41 14 -31 14 -37 1 -29 -5 3 -10 0
-10 -8 0 -18 16 -25 50 -22 20 1 26 8 28 33 2 23 0 31 -10 27 -19 -7 -51 21
-45 40 8 19 3 19 -13 0z"/>
<path d="M1000 1206 c0 -2 7 -7 16 -10 8 -3 12 -2 9 4 -6 10 -25 14 -25 6z"/>
<path d="M1050 1042 c0 -5 7 -15 15 -22 8 -7 15 -9 15 -6 0 4 -7 14 -15 22 -8
9 -15 11 -15 6z"/>
<path d="M1147 1039 c-12 -7 -16 -17 -12 -30 5 -13 2 -19 -10 -19 -12 0 -15 6
-10 19 3 11 1 22 -4 26 -7 3 -8 0 -5 -9 3 -9 1 -16 -5 -16 -8 0 -8 -6 1 -19 7
-11 15 -18 19 -15 4 2 10 0 14 -6 10 -16 25 -12 19 5 -9 22 6 19 35 -7 l26
-23 -24 27 c-12 14 -20 31 -17 37 4 7 1 8 -8 5 -9 -3 -16 -1 -16 5 0 6 6 11
14 11 8 0 18 5 21 10 8 13 -15 12 -38 -1z"/>
<path d="M1060 975 c-7 -9 -11 -17 -9 -20 3 -2 10 5 17 15 14 24 10 26 -8 5z"/>
<path d="M1111 944 c0 -11 3 -14 6 -6 3 7 2 16 -1 19 -3 4 -6 -2 -5 -13z"/>
<path d="M1127 930 c-3 -11 -1 -20 4 -20 5 0 9 2 9 4 0 2 3 11 6 20 3 9 2 16
-4 16 -5 0 -12 -9 -15 -20z"/>
<path d="M1097 864 c-8 -8 3 -34 14 -34 11 0 12 27 0 34 -4 3 -11 3 -14 0z"/>
<path d="M1147 851 c-4 -17 -3 -21 5 -13 5 5 8 16 6 23 -3 8 -7 3 -11 -10z"/>
<path d="M1183 851 c0 -11 5 -18 9 -15 4 3 5 11 1 19 -7 21 -12 19 -10 -4z"/>
<path d="M1065 851 c-3 -5 -1 -12 5 -16 5 -3 10 1 10 9 0 18 -6 21 -15 7z"/>
<path d="M1348 710 c-36 -52 -19 -52 22 0 19 24 26 40 18 40 -7 -1 -25 -19
-40 -40z"/>
<path d="M1402 723 c-30 -44 -34 -53 -24 -53 5 0 21 18 36 40 29 44 18 56 -12
13z"/>
<path d="M1455 740 c-4 -6 20 -10 64 -10 38 0 73 5 76 10 4 6 -20 10 -64 10
-38 0 -73 -4 -76 -10z"/>
<path d="M1468 703 c18 -2 45 -2 60 0 15 2 0 4 -33 4 -33 0 -45 -2 -27 -4z"/>
<path d="M1415 670 c-4 -6 11 -10 39 -10 25 0 48 5 51 10 4 6 -11 10 -39 10
-25 0 -48 -4 -51 -10z"/>
</g>
</svg>
